P3
# CREATOR: GIMP PNM Filter Version 1.1
118 19
255
0
2
0
0
2
0
0
2
0
0
2
0
0
2
0
0
2
0
0
2
0
0
2
0
0
2
0
0
2
0
0
2
0
0
2
0
0
2
0
0
2
0
0
2
0
0
2
0
0
2
0
0
2
0
0
2
0
0
2
0
0
2
0
0
2
0
0
2
0
0
2
0
0
2
0
0
2
0
0
2
0
0
2
0
0
2
0
0
2
0
0
2
0
0
2
0
0
2
0
23
24
22
52
54
51
58
60
57
58
59
57
7
9
5
0
2
0
0
2
0
0
2
0
0
2
0
0
2
0
0
2
0
0
2
0
0
2
0
0
2
0
0
2
0
0
2
0
0
2
0
0
2
0
0
2
0
0
2
0
0
2
0
0
2
0
0
2
0
0
2
0
0
2
0
0
2
0
0
2
0
0
2
0
0
2
0
0
2
0
0
2
0
0
2
0
0
2
0
0
2
0
0
2
0
0
2
0
0
2
0
0
2
0
0
2
0
0
2
0
0
2
0
0
2
0
0
2
0
0
2
0
0
2
0
0
2
0
0
2
0
0
2
0
0
2
0
0
2
0
0
2
0
0
2
0
0
2
0
0
2
0
0
2
0
0
2
0
0
2
0
0
2
0
0
2
0
0
2
0
0
2
0
0
2
0
0
2
0
0
2
0
0
2
0
0
2
0
0
2
0
0
2
0
0
2
0
0
2
0
0
2
0
0
2
0
0
2
0
0
2
0
0
2
0
0
2
0
0
2
0
0
2
0
0
2
0
0
2
0
0
2
0
0
2
0
0
2
0
0
2
0
0
2
0
0
2
0
0
2
0
0
2
0
0
2
0
0
2
0
0
2
0
0
2
0
0
2
0
0
2
0
0
2
0
0
2
0
0
2
0
0
2
0
0
2
0
0
2
0
0
2
0
0
2
0
0
2
0
0
2
0
0
2
0
0
2
0
0
2
0
0
2
0
0
2
0
0
2
0
0
2
0
0
2
0
0
2
0
0
2
0
0
2
0
0
2
0
0
2
0
0
2
0
46
48
45
239
241
238
248
250
247
247
249
246
110
112
109
0
2
0
0
2
0
0
2
0
0
2
0
0
2
0
0
2
0
0
2
0
0
2
0
0
2
0
0
2
0
0
2
0
0
2
0
0
2
0
0
2
0
0
2
0
0
2
0
0
2
0
0
2
0
0
2
0
0
2
0
0
2
0
0
2
0
0
2
0
0
2
0
0
2
0
0
2
0
0
2
0
0
2
0
0
2
0
0
2
0
0
2
0
0
2
0
0
2
0
0
2
0
0
2
0
0
2
0
0
2
0
0
2
0
0
2
0
0
2
0
0
2
0
0
2
0
0
2
0
0
2
0
0
2
0
0
2
0
0
2
0
0
2
0
0
2
0
0
2
0
0
2
0
0
2
0
0
2
0
0
2
0
0
2
0
0
2
0
0
2
0
0
2
0
0
2
0
0
2
0
0
2
0
0
2
0
0
2
0
0
2
0
0
2
0
0
2
0
0
2
0
0
2
0
0
2
0
0
2
0
0
2
0
0
2
0
0
2
0
0
2
0
0
2
0
0
2
0
0
2
0
0
2
0
0
2
0
0
2
0
0
2
0
0
2
0
0
2
0
0
2
0
0
2
0
0
2
0
0
2
0
0
2
0
0
2
0
0
2
0
0
2
0
0
2
0
0
2
0
0
2
0
0
2
0
0
2
0
0
2
0
0
2
0
0
2
0
0
2
0
0
2
0
0
2
0
0
2
0
0
2
0
0
2
0
0
2
0
0
2
0
0
2
0
0
2
0
0
2
0
0
2
0
0
2
0
0
2
0
0
2
0
156
158
155
248
250
247
248
250
247
231
233
230
27
28
26
0
2
0
0
2
0
0
2
0
0
2
0
0
2
0
0
2
0
0
2
0
0
2
0
0
2
0
0
2
0
0
2
0
0
2
0
0
2
0
0
2
0
0
2
0
0
2
0
0
2
0
0
2
0
0
2
0
0
2
0
0
2
0
0
2
0
0
2
0
0
2
0
0
2
0
0
2
0
0
2
0
0
2
0
0
2
0
0
2
0
0
2
0
0
2
0
0
2
0
0
2
0
0
2
0
0
2
0
0
2
0
0
2
0
0
2
0
0
2
0
0
2
0
0
2
0
0
2
0
0
2
0
0
2
0
0
2
0
0
2
0
0
2
0
0
2
0
0
2
0
0
2
0
0
2
0
0
2
0
0
2
0
0
2
0
0
2
0
0
2
0
0
2
0
0
2
0
0
2
0
0
2
0
0
2
0
0
2
0
0
2
0
0
2
0
0
2
0
0
2
0
0
2
0
0
2
0
0
2
0
0
2
0
0
2
0
0
2
0
0
2
0
0
2
0
0
2
0
0
2
0
0
2
0
0
2
0
0
2
0
0
2
0
0
2
0
0
2
0
0
2
0
0
2
0
0
2
0
0
2
0
0
2
0
0
2
0
0
2
0
0
2
0
0
2
0
0
2
0
0
2
0
0
2
0
0
2
0
0
2
0
0
2
0
0
2
0
0
2
0
0
2
0
0
2
0
0
2
0
0
2
0
0
2
0
0
2
0
0
2
0
0
2
0
0
2
0
0
2
0
0
2
0
0
2
0
0
2
0
28
29
27
232
234
231
248
250
247
248
250
247
156
158
155
0
2
0
0
2
0
0
2
0
0
2
0
0
2
0
0
2
0
0
2
0
0
2
0
0
2
0
0
2
0
0
2
0
0
2
0
0
2
0
0
2
0
0
2
0
0
2
0
0
2
0
0
2
0
0
2
0
0
2
0
0
2
0
0
2
0
0
2
0
0
2
0
0
2
0
0
2
0
0
2
0
0
2
0
0
2
0
0
2
0
0
2
0
0
2
0
0
2
0
0
2
0
0
2
0
0
2
0
0
2
0
0
2
0
0
2
0
0
2
0
0
2
0
0
2
0
0
2
0
0
2
0
0
2
0
0
2
0
0
2
0
0
2
0
0
2
0
0
2
0
0
2
0
0
2
0
0
2
0
0
2
0
0
2
0
0
2
0
0
2
0
0
2
0
0
2
0
0
2
0
0
2
0
0
2
0
0
2
0
0
2
0
0
2
0
0
2
0
0
2
0
0
2
0
0
2
0
0
2
0
0
2
0
0
2
0
0
2
0
0
2
0
0
2
0
0
2
0
0
2
0
0
2
0
0
2
0
0
2
0
0
2
0
0
2
0
0
2
0
0
2
0
0
2
0
0
2
0
0
2
0
0
2
0
0
2
0
0
2
0
0
2
0
0
2
0
0
2
0
0
2
0
0
2
0
98
100
97
212
214
211
124
126
123
0
2
0
0
2
0
0
2
0
18
20
17
188
190
187
115
117
114
0
2
0
0
2
0
0
2
0
0
2
0
14
16
12
150
152
149
63
64
62
0
2
0
0
2
0
0
2
0
114
116
113
248
250
247
248
250
247
243
245
242
58
59
57
0
2
0
0
2
0
0
2
0
4
7
2
169
171
168
146
148
145
0
2
0
0
2
0
0
2
0
0
2
0
4
7
2
130
132
129
93
95
92
0
2
0
62
64
61
202
204
201
209
211
208
209
211
208
209
211
208
209
211
208
209
211
208
206
208
204
137
139
136
0
2
0
0
2
0
151
153
150
206
208
204
209
211
208
209
211
208
206
208
204
195
197
194
147
149
146
47
49
46
0
2
0
0
2
0
41
43
40
196
198
195
170
172
169
7
9
5
0
2
0
0
2
0
0
2
0
158
160
157
160
162
159
0
2
0
0
2
0
130
132
129
206
208
204
209
211
208
209
211
208
209
211
208
209
211
208
209
211
208
202
204
201
72
73
71
0
2
0
0
2
0
143
145
142
166
168
165
4
7
2
0
2
0
0
2
0
0
2
0
0
2
0
0
2
0
0
2
0
0
2
0
0
2
0
0
2
0
0
2
0
0
2
0
0
2
0
0
2
0
0
2
0
0
2
0
0
2
0
0
2
0
0
2
0
0
2
0
0
2
0
0
2
0
0
2
0
0
2
0
0
2
0
0
2
0
0
2
0
0
2
0
0
2
0
0
2
0
0
2
0
0
2
0
0
2
0
0
2
0
0
2
0
206
208
204
251
253
250
231
233
230
10
12
8
0
2
0
0
2
0
28
29
27
250
252
249
162
164
161
0
2
0
0
2
0
0
2
0
14
16
12
185
187
184
248
250
247
71
73
70
0
2
0
0
2
0
0
2
0
7
9
5
206
208
204
248
250
247
248
250
247
194
196
193
7
9
5
0
2
0
0
2
0
7
9
5
231
233
230
203
206
202
0
2
0
0
2
0
0
2
0
4
7
2
154
155
152
249
251
248
108
110
107
0
2
0
91
93
90
250
252
249
222
224
221
195
197
194
194
196
193
194
196
193
194
196
193
192
194
190
128
130
127
0
2
0
0
2
0
211
213
210
248
250
247
199
201
198
194
196
193
193
195
191
203
206
202
246
248
244
238
240
237
58
59
57
0
2
0
63
64
62
251
253
250
254
255
252
97
99
96
0
2
0
0
2
0
0
2
0
217
219
215
221
223
220
4
7
2
0
2
0
182
184
181
250
252
249
202
204
201
194
196
193
194
196
193
194
196
193
194
196
193
187
189
186
67
69
66
0
2
0
0
2
0
198
200
197
227
229
225
4
7
2
0
2
0
0
2
0
0
2
0
0
2
0
0
2
0
0
2
0
0
2
0
0
2
0
0
2
0
0
2
0
0
2
0
0
2
0
0
2
0
0
2
0
0
2
0
0
2
0
0
2
0
0
2
0
0
2
0
0
2
0
0
2
0
0
2
0
0
2
0
0
2
0
0
2
0
0
2
0
0
2
0
0
2
0
0
2
0
0
2
0
0
2
0
0
2
0
0
2
0
51
52
50
249
251
248
233
235
232
251
253
250
82
84
81
0
2
0
0
2
0
28
29
27
251
253
250
163
165
162
0
2
0
0
2
0
15
17
13
186
188
185
249
251
248
121
123
120
0
2
0
0
2
0
0
2
0
0
2
0
0
2
0
74
75
73
246
248
244
248
250
247
247
249
246
96
98
95
0
2
0
0
2
0
7
9
5
232
234
231
205
207
203
0
2
0
0
2
0
4
7
2
156
158
155
249
251
248
156
158
155
4
7
2
0
2
0
92
94
91
254
255
252
86
88
85
0
2
0
0
2
0
0
2
0
0
2
0
0
2
0
0
2
0
0
2
0
0
2
0
211
213
210
230
232
229
4
7
2
0
2
0
0
2
0
0
2
0
65
67
65
248
250
247
169
171
168
0
2
0
64
65
63
254
255
252
250
252
249
213
215
212
7
9
5
0
2
0
0
2
0
217
219
215
222
224
221
0
2
0
0
2
0
183
185
182
249
251
248
14
16
12
0
2
0
0
2
0
0
2
0
0
2
0
0
2
0
0
2
0
0
2
0
0
2
0
199
201
198
230
232
229
4
7
2
0
2
0
0
2
0
0
2
0
0
2
0
0
2
0
0
2
0
0
2
0
0
2
0
0
2
0
0
2
0
0
2
0
0
2
0
0
2
0
0
2
0
0
2
0
0
2
0
0
2
0
0
2
0
0
2
0
0
2
0
0
2
0
0
2
0
0
2
0
0
2
0
0
2
0
0
2
0
0
2
0
0
2
0
0
2
0
0
2
0
0
2
0
0
2
0
0
2
0
141
143
140
251
253
250
86
87
85
247
249
246
172
174
171
0
2
0
0
2
0
28
29
27
251
253
250
163
165
162
0
2
0
15
17
13
188
190
187
249
251
248
122
124
121
0
2
0
0
2
0
0
2
0
0
2
0
0
2
0
0
2
0
0
2
0
173
175
172
248
250
247
248
250
247
222
224
221
18
20
17
0
2
0
7
9
5
232
234
231
205
207
203
0
2
0
7
9
5
157
159
156
250
252
249
157
159
156
4
7
2
0
2
0
0
2
0
92
94
91
254
255
252
84
85
83
0
2
0
0
2
0
0
2
0
0
2
0
0
2
0
0
2
0
0
2
0
0
2
0
211
213
210
227
229
225
4
7
2
0
2
0
0
2
0
0
2
0
0
2
0
231
233
230
205
207
203
0
2
0
64
65
63
254
255
252
231
233
230
251
253
250
95
97
94
0
2
0
0
2
0
217
219
215
222
224
221
0
2
0
0
2
0
183
185
182
249
251
248
10
12
8
0
2
0
0
2
0
0
2
0
0
2
0
0
2
0
0
2
0
0
2
0
0
2
0
199
201
198
230
232
229
4
7
2
0
2
0
0
2
0
0
2
0
0
2
0
0
2
0
0
2
0
0
2
0
0
2
0
0
2
0
0
2
0
0
2
0
0
2
0
0
2
0
0
2
0
0
2
0
0
2
0
0
2
0
0
2
0
0
2
0
0
2
0
0
2
0
0
2
0
0
2
0
0
2
0
0
2
0
0
2
0
0
2
0
0
2
0
0
2
0
0
2
0
0
2
0
0
2
0
7
9
5
227
229
225
210
212
209
0
2
0
181
183
180
241
243
240
22
24
21
0
2
0
28
29
27
251
253
250
163
165
162
17
19
16
190
193
189
249
251
248
119
121
118
0
2
0
0
2
0
0
2
0
0
2
0
0
2
0
0
2
0
0
2
0
0
2
0
40
41
39
238
240
237
248
250
247
248
250
247
137
139
136
0
2
0
7
9
5
232
234
231
203
206
202
7
9
5
160
162
159
249
251
248
154
155
152
4
7
2
0
2
0
0
2
0
0
2
0
92
94
91
254
255
252
86
88
85
0
2
0
0
2
0
0
2
0
0
2
0
0
2
0
0
2
0
0
2
0
0
2
0
211
213
210
230
232
229
4
7
2
0
2
0
0
2
0
0
2
0
31
32
30
242
244
241
184
186
183
0
2
0
64
65
63
254
255
252
135
137
134
227
229
225
211
213
210
7
9
5
0
2
0
217
219
215
222
224
221
0
2
0
0
2
0
183
185
182
249
251
248
14
16
12
0
2
0
0
2
0
0
2
0
0
2
0
0
2
0
0
2
0
0
2
0
0
2
0
199
201
198
230
232
229
4
7
2
0
2
0
0
2
0
0
2
0
0
2
0
0
2
0
0
2
0
0
2
0
0
2
0
0
2
0
0
2
0
0
2
0
0
2
0
0
2
0
0
2
0
0
2
0
0
2
0
0
2
0
0
2
0
0
2
0
0
2
0
0
2
0
0
2
0
0
2
0
0
2
0
0
2
0
0
2
0
0
2
0
0
2
0
0
2
0
0
2
0
0
2
0
0
2
0
74
75
73
250
252
249
122
124
121
0
2
0
91
93
90
251
253
250
104
105
103
0
2
0
28
29
27
251
253
250
186
188
185
197
199
196
249
251
248
195
197
194
0
2
0
0
2
0
0
2
0
0
2
0
0
2
0
0
2
0
0
2
0
0
2
0
0
2
0
0
2
0
163
165
162
248
250
247
248
250
247
230
232
229
16
18
15
7
9
5
232
234
231
217
219
215
167
169
166
249
251
248
225
228
224
12
15
11
0
2
0
0
2
0
0
2
0
0
2
0
92
94
91
251
253
250
206
208
204
172
174
171
170
172
169
170
172
169
170
172
169
166
168
165
57
58
56
0
2
0
0
2
0
211
213
210
242
244
241
131
133
130
122
124
121
122
124
121
139
141
138
216
218
214
247
249
246
86
87
85
0
2
0
64
65
63
254
255
252
119
121
118
116
118
115
251
253
250
92
94
91
0
2
0
217
219
215
222
224
221
0
2
0
0
2
0
182
184
181
250
252
249
183
185
182
171
173
170
170
172
169
170
172
169
170
172
169
154
155
152
10
12
8
0
2
0
0
2
0
199
201
198
230
232
229
4
7
2
0
2
0
0
2
0
0
2
0
0
2
0
0
2
0
0
2
0
0
2
0
0
2
0
0
2
0
0
2
0
0
2
0
0
2
0
0
2
0
0
2
0
0
2
0
0
2
0
0
2
0
0
2
0
0
2
0
0
2
0
0
2
0
0
2
0
0
2
0
0
2
0
0
2
0
0
2
0
0
2
0
0
2
0
0
2
0
0
2
0
0
2
0
0
2
0
164
166
163
248
250
247
37
39
36
0
2
0
15
17
13
237
239
235
195
197
194
0
2
0
28
29
27
251
253
250
251
253
250
249
251
248
227
229
225
249
251
248
96
98
95
0
2
0
0
2
0
0
2
0
0
2
0
0
2
0
0
2
0
0
2
0
0
2
0
25
27
24
230
232
229
248
250
247
248
250
247
161
163
160
0
2
0
7
9
5
232
234
231
251
253
250
250
252
249
225
228
224
250
252
249
135
137
134
0
2
0
0
2
0
0
2
0
0
2
0
91
93
90
251
253
250
237
239
235
220
222
219
220
222
219
220
222
219
220
222
219
213
215
212
76
78
75
0
2
0
0
2
0
211
213
210
250
252
249
249
251
248
249
251
248
250
252
249
250
252
249
212
214
211
92
94
91
0
2
0
0
2
0
64
65
63
254
255
252
116
118
115
15
17
13
225
228
224
206
208
204
7
9
5
217
219
215
222
224
221
0
2
0
0
2
0
182
184
181
249
251
248
227
229
225
220
222
219
220
222
219
220
222
219
220
222
219
199
201
198
15
17
13
0
2
0
0
2
0
199
201
198
230
232
229
4
7
2
0
2
0
0
2
0
0
2
0
0
2
0
0
2
0
0
2
0
0
2
0
0
2
0
0
2
0
0
2
0
0
2
0
0
2
0
0
2
0
0
2
0
0
2
0
0
2
0
0
2
0
0
2
0
0
2
0
0
2
0
0
2
0
0
2
0
0
2
0
0
2
0
0
2
0
0
2
0
0
2
0
0
2
0
0
2
0
0
2
0
0
2
0
16
18
15
239
241
238
199
201
198
0
2
0
0
2
0
0
2
0
167
169
166
248
250
247
40
41
39
28
29
27
251
253
250
249
251
248
114
116
113
35
36
34
230
232
229
238
240
237
49
51
48
0
2
0
0
2
0
0
2
0
0
2
0
0
2
0
0
2
0
0
2
0
147
149
146
248
250
247
248
250
247
234
236
233
32
33
31
0
2
0
7
9
5
232
234
231
250
252
249
148
150
147
20
21
19
206
208
204
246
248
244
82
84
81
0
2
0
0
2
0
0
2
0
92
94
91
254
255
252
91
93
90
0
2
0
0
2
0
0
2
0
0
2
0
0
2
0
0
2
0
0
2
0
0
2
0
211
213
210
234
236
233
27
28
26
20
21
19
136
138
135
250
252
249
140
142
139
0
2
0
0
2
0
0
2
0
64
65
63
254
255
252
115
117
114
0
2
0
116
118
115
250
252
249
94
96
93
222
224
221
222
224
221
0
2
0
0
2
0
183
185
182
250
252
249
15
17
13
0
2
0
0
2
0
0
2
0
0
2
0
0
2
0
0
2
0
0
2
0
0
2
0
199
201
198
230
232
229
4
7
2
0
2
0
0
2
0
0
2
0
0
2
0
0
2
0
0
2
0
0
2
0
0
2
0
0
2
0
0
2
0
0
2
0
0
2
0
0
2
0
0
2
0
0
2
0
0
2
0
0
2
0
0
2
0
0
2
0
0
2
0
0
2
0
0
2
0
0
2
0
0
2
0
0
2
0
0
2
0
0
2
0
0
2
0
0
2
0
0
2
0
0
2
0
96
98
95
251
253
250
239
241
238
206
208
204
202
204
201
203
206
202
232
234
231
250
252
249
127
129
126
29
31
28
254
255
252
180
182
179
0
2
0
0
2
0
71
73
70
244
247
243
212
214
211
19
20
18
0
2
0
0
2
0
0
2
0
0
2
0
0
2
0
52
54
51
242
244
241
248
250
247
248
250
247
119
121
118
0
2
0
0
2
0
7
9
5
232
234
231
217
219
215
7
9
5
0
2
0
42
44
41
231
233
230
232
234
231
41
43
40
0
2
0
0
2
0
92
94
91
254
255
252
84
85
83
0
2
0
0
2
0
0
2
0
0
2
0
0
2
0
0
2
0
0
2
0
0
2
0
211
213
210
230
232
229
4
7
2
0
2
0
10
12
8
205
207
203
243
245
242
52
54
51
0
2
0
0
2
0
64
65
63
254
255
252
115
117
114
0
2
0
16
18
15
227
229
225
212
214
211
231
233
230
222
224
221
0
2
0
0
2
0
183
185
182
249
251
248
10
12
8
0
2
0
0
2
0
0
2
0
0
2
0
0
2
0
0
2
0
0
2
0
0
2
0
199
201
198
227
229
225
4
7
2
0
2
0
0
2
0
0
2
0
0
2
0
0
2
0
0
2
0
0
2
0
0
2
0
0
2
0
0
2
0
0
2
0
0
2
0
0
2
0
0
2
0
0
2
0
0
2
0
0
2
0
0
2
0
0
2
0
0
2
0
0
2
0
0
2
0
0
2
0
0
2
0
0
2
0
0
2
0
0
2
0
0
2
0
0
2
0
0
2
0
0
2
0
187
189
186
248
250
247
194
196
193
185
187
184
186
188
185
185
187
184
188
190
187
242
244
241
217
219
215
34
36
33
254
255
252
163
165
162
0
2
0
0
2
0
0
2
0
120
122
119
250
252
249
173
175
172
4
7
2
0
2
0
0
2
0
0
2
0
4
7
2
188
190
187
248
250
247
248
250
247
211
213
210
10
12
8
0
2
0
0
2
0
7
9
5
232
234
231
205
207
203
0
2
0
0
2
0
0
2
0
82
84
81
248
250
247
203
206
202
15
17
13
0
2
0
92
94
91
251
253
250
85
86
84
0
2
0
0
2
0
0
2
0
0
2
0
0
2
0
0
2
0
0
2
0
0
2
0
211
213
210
227
229
225
4
7
2
0
2
0
0
2
0
61
63
60
243
245
242
199
201
198
7
9
5
0
2
0
64
65
63
254
255
252
115
117
114
0
2
0
0
2
0
117
119
116
250
252
249
254
255
252
222
224
221
0
2
0
0
2
0
183
185
182
249
251
248
12
15
11
0
2
0
0
2
0
0
2
0
0
2
0
0
2
0
0
2
0
0
2
0
0
2
0
199
201
198
227
229
225
4
7
2
0
2
0
0
2
0
0
2
0
0
2
0
0
2
0
0
2
0
0
2
0
0
2
0
0
2
0
0
2
0
0
2
0
0
2
0
0
2
0
0
2
0
0
2
0
0
2
0
0
2
0
0
2
0
0
2
0
0
2
0
0
2
0
0
2
0
0
2
0
0
2
0
0
2
0
0
2
0
0
2
0
0
2
0
0
2
0
0
2
0
27
28
26
247
249
246
178
180
177
0
2
0
0
2
0
0
2
0
0
2
0
0
2
0
144
146
143
251
253
250
70
72
69
254
255
252
162
164
161
0
2
0
0
2
0
0
2
0
4
7
2
169
171
168
249
251
248
116
118
115
0
2
0
0
2
0
0
2
0
91
93
90
247
249
246
248
250
247
246
248
244
79
81
78
0
2
0
0
2
0
0
2
0
7
9
5
232
234
231
203
206
202
0
2
0
0
2
0
0
2
0
0
2
0
132
134
131
250
252
249
156
158
155
0
2
0
92
94
91
251
253
250
154
155
152
86
87
85
85
86
84
85
86
84
85
86
84
83
84
82
52
54
51
0
2
0
0
2
0
211
213
210
227
229
225
4
7
2
0
2
0
0
2
0
0
2
0
141
143
140
249
251
248
109
111
108
0
2
0
63
64
62
251
253
250
115
117
114
0
2
0
0
2
0
18
20
17
230
232
229
254
255
252
222
224
221
4
7
2
0
2
0
183
185
182
251
253
250
102
103
101
85
86
84
85
86
84
85
86
84
84
85
83
80
82
79
25
27
24
0
2
0
0
2
0
199
201
198
241
243
240
93
95
92
85
86
84
85
86
84
85
86
84
85
86
84
81
83
80
31
32
30
0
2
0
0
2
0
0
2
0
0
2
0
0
2
0
0
2
0
0
2
0
0
2
0
0
2
0
0
2
0
0
2
0
0
2
0
0
2
0
0
2
0
0
2
0
0
2
0
0
2
0
0
2
0
0
2
0
0
2
0
0
2
0
0
2
0
0
2
0
0
2
0
43
45
42
237
239
235
85
86
84
0
2
0
0
2
0
0
2
0
0
2
0
0
2
0
55
57
54
233
235
232
68
70
67
243
245
242
151
153
150
0
2
0
0
2
0
0
2
0
0
2
0
19
20
18
205
207
203
169
171
168
0
2
0
0
2
0
15
17
13
217
219
215
248
250
247
248
250
247
179
181
178
0
2
0
0
2
0
0
2
0
0
2
0
7
9
5
221
223
220
192
194
190
0
2
0
0
2
0
0
2
0
0
2
0
7
9
5
177
179
175
209
211
208
0
2
0
84
85
83
251
253
250
254
255
252
254
255
252
254
255
252
254
255
252
254
255
252
254
255
252
176
178
174
0
2
0
0
2
0
199
201
198
216
218
214
4
7
2
0
2
0
0
2
0
0
2
0
15
17
13
206
208
204
151
153
150
0
2
0
57
58
56
244
247
243
105
107
104
0
2
0
0
2
0
0
2
0
117
119
116
251
253
250
211
213
210
0
2
0
0
2
0
171
173
170
254
255
252
254
255
252
254
255
252
254
255
252
254
255
252
254
255
252
249
251
248
91
93
90
0
2
0
0
2
0
187
189
186
254
255
252
254
255
252
254
255
252
254
255
252
254
255
252
254
255
252
250
252
249
109
111
108
0
2
0
0
2
0
0
2
0
0
2
0
0
2
0
0
2
0
0
2
0
0
2
0
0
2
0
0
2
0
0
2
0
0
2
0
0
2
0
0
2
0
0
2
0
0
2
0
0
2
0
0
2
0
0
2
0
0
2
0
0
2
0
0
2
0
0
2
0
0
2
0
4
7
2
32
33
31
4
7
2
0
2
0
0
2
0
0
2
0
0
2
0
0
2
0
0
2
0
31
32
30
7
9
5
44
45
43
25
27
24
0
2
0
0
2
0
0
2
0
0
2
0
0
2
0
16
18
15
27
28
26
0
2
0
0
2
0
131
133
130
248
250
247
248
250
247
240
242
239
45
46
44
0
2
0
0
2
0
0
2
0
0
2
0
0
2
0
38
40
37
32
33
31
0
2
0
0
2
0
0
2
0
0
2
0
0
2
0
7
9
5
34
36
33
0
2
0
10
12
8
49
51
48
53
55
52
53
55
52
53
55
52
53
55
52
53
55
52
52
54
51
31
32
30
0
2
0
0
2
0
33
35
32
37
39
36
0
2
0
0
2
0
0
2
0
0
2
0
0
2
0
18
20
17
24
25
23
0
2
0
7
9
5
45
46
44
16
18
15
0
2
0
0
2
0
0
2
0
4
7
2
48
50
47
36
37
35
0
2
0
0
2
0
29
31
28
52
54
51
53
55
52
53
55
52
53
55
52
53
55
52
53
55
52
49
51
48
14
16
12
0
2
0
0
2
0
32
33
31
52
54
51
53
55
52
53
55
52
53
55
52
53
55
52
53
55
52
50
51
49
18
20
17
0
2
0
0
2
0
0
2
0
0
2
0
0
2
0
0
2
0
0
2
0
0
2
0
0
2
0
0
2
0
0
2
0
0
2
0
0
2
0
0
2
0
0
2
0
0
2
0
0
2
0
0
2
0
0
2
0
0
2
0
0
2
0
0
2
0
0
2
0
0
2
0
0
2
0
0
2
0
0
2
0
0
2
0
0
2
0
0
2
0
0
2
0
0
2
0
0
2
0
0
2
0
0
2
0
0
2
0
0
2
0
0
2
0
0
2
0
0
2
0
0
2
0
0
2
0
0
2
0
0
2
0
0
2
0
33
35
32
235
238
234
248
250
247
248
250
247
136
138
135
0
2
0
0
2
0
0
2
0
0
2
0
0
2
0
0
2
0
0
2
0
0
2
0
0
2
0
0
2
0
0
2
0
0
2
0
0
2
0
0
2
0
0
2
0
0
2
0
0
2
0
0
2
0
0
2
0
0
2
0
0
2
0
0
2
0
0
2
0
0
2
0
0
2
0
0
2
0
0
2
0
0
2
0
0
2
0
0
2
0
0
2
0
0
2
0
0
2
0
0
2
0
0
2
0
0
2
0
0
2
0
0
2
0
0
2
0
0
2
0
0
2
0
0
2
0
0
2
0
0
2
0
0
2
0
0
2
0
0
2
0
0
2
0
0
2
0
0
2
0
0
2
0
0
2
0
0
2
0
0
2
0
0
2
0
0
2
0
0
2
0
0
2
0
0
2
0
0
2
0
0
2
0
0
2
0
0
2
0
0
2
0
0
2
0
0
2
0
0
2
0
0
2
0
0
2
0
0
2
0
0
2
0
0
2
0
0
2
0
0
2
0
0
2
0
0
2
0
0
2
0
0
2
0
0
2
0
0
2
0
0
2
0
0
2
0
0
2
0
0
2
0
0
2
0
0
2
0
0
2
0
0
2
0
0
2
0
0
2
0
0
2
0
0
2
0
0
2
0
0
2
0
0
2
0
0
2
0
0
2
0
0
2
0
0
2
0
0
2
0
0
2
0
0
2
0
0
2
0
0
2
0
0
2
0
0
2
0
0
2
0
0
2
0
0
2
0
0
2
0
0
2
0
0
2
0
0
2
0
40
41
39
100
101
99
104
106
103
99
101
98
14
16
12
0
2
0
0
2
0
0
2
0
0
2
0
0
2
0
0
2
0
0
2
0
0
2
0
0
2
0
0
2
0
0
2
0
0
2
0
0
2
0
0
2
0
0
2
0
0
2
0
0
2
0
0
2
0
0
2
0
0
2
0
0
2
0
0
2
0
0
2
0
0
2
0
0
2
0
0
2
0
0
2
0
0
2
0
0
2
0
0
2
0
0
2
0
0
2
0
0
2
0
0
2
0
0
2
0
0
2
0
0
2
0
0
2
0
0
2
0
0
2
0
0
2
0
0
2
0
0
2
0
0
2
0
0
2
0
0
2
0
0
2
0
0
2
0
0
2
0
0
2
0
0
2
0
0
2
0
0
2
0
0
2
0
0
2
0
0
2
0
0
2
0
0
2
0
0
2
0
0
2
0
0
2
0
0
2
0
0
2
0
0
2
0
0
2
0
0
2
0
0
2
0
0
2
0
0
2
0
0
2
0
0
2
0
0
2
0
0
2
0
0
2
0
0
2
0
0
2
0
0
2
0
0
2
0
0
2
0
0
2
0
